STARTFONT 2.1
FONT Untitled
SIZE 8 75 75
FONTBOUNDINGBOX 8 8 0 0
CHARS 1
STARTCHAR C000
ENCODING 0
SWIDTH 500 0
DWIDTH 8 0
BBX 8 8 0 0
BITMAP
80
00
00
00
00
00
00
00
ENDCHAR
ENDFONT
